<svg width="240" height="46" viewBox="0 0 240 46" fill="none" xmlns="http://www.w3.org/2000/svg">
<g filter="url(#filter0_d_7605_43882)">
<mask id="path-1-outside-1_7605_43882" maskUnits="userSpaceOnUse" x="5" y="5" width="228" height="37" fill="black">
<rect fill="white" x="5" y="5" width="228" height="37"/>
<path d="M17.26 29.364C18.916 29.364 20.2 28.488 21.112 26.736C22.024 24.984 22.48 23.148 22.48 21.228C22.48 19.284 22.132 17.736 21.436 16.584C20.74 15.432 19.84 14.856 18.736 14.856H18.52L17.044 29.364H17.26ZM17.116 33H10.06L7.9 11.184H18.52C23.872 11.184 27.556 12.648 29.572 15.576C30.628 17.136 31.156 18.984 31.156 21.12C31.156 29.04 26.476 33 17.116 33ZM35.4906 31.236C33.7626 29.796 32.8986 27.516 32.8986 24.396C32.8986 21.276 33.7626 19.008 35.4906 17.592C37.2426 16.152 39.5706 15.432 42.4746 15.432C45.3786 15.432 47.6946 16.152 49.4226 17.592C51.1746 19.008 52.0506 21.276 52.0506 24.396C52.0506 27.516 51.1746 29.796 49.4226 31.236C47.6946 32.652 45.3786 33.36 42.4746 33.36C39.5706 33.36 37.2426 32.652 35.4906 31.236ZM40.9626 20.328C40.6746 21.144 40.5306 22.5 40.5306 24.396C40.5306 26.292 40.6746 27.66 40.9626 28.5C41.2506 29.316 41.7546 29.724 42.4746 29.724C43.1946 29.724 43.6986 29.316 43.9866 28.5C44.2746 27.66 44.4186 26.292 44.4186 24.396C44.4186 22.5 44.2746 21.144 43.9866 20.328C43.6986 19.488 43.1946 19.068 42.4746 19.068C41.7546 19.068 41.2506 19.488 40.9626 20.328ZM64.4358 39.66C63.2598 39.66 62.1078 39.48 60.9798 39.12C59.8517 38.784 59.0237 38.448 58.4957 38.112L57.7037 37.572L59.2877 34.332C60.3197 34.836 61.2797 35.088 62.1678 35.088C63.7998 35.088 64.9998 34.572 65.7678 33.54C66.5358 32.508 66.9198 31.32 66.9198 29.976C66.9198 29.736 66.9078 29.496 66.8837 29.256C65.7557 31.512 63.9077 32.64 61.3397 32.64C59.0837 32.64 57.2837 31.956 55.9397 30.588C54.6197 29.22 53.9597 27.048 53.9597 24.072C53.9597 22.416 54.1877 20.988 54.6437 19.788C55.1237 18.588 55.7477 17.688 56.5157 17.088C57.9317 15.984 59.5037 15.432 61.2318 15.432C62.4317 15.432 63.4517 15.72 64.2917 16.296C64.9878 16.8 65.5758 17.352 66.0558 17.952L65.8398 15.936H74.1918L73.5798 29.94C73.2678 36.42 70.2198 39.66 64.4358 39.66ZM63.5357 20.292C62.1197 20.292 61.4117 21.612 61.4117 24.252C61.4117 24.732 61.4477 25.2 61.5198 25.656C61.6157 26.112 61.8437 26.568 62.2037 27.024C62.5877 27.48 63.1278 27.708 63.8238 27.708C64.5198 27.708 65.0357 27.372 65.3717 26.7C65.7318 26.028 65.9118 25.212 65.9118 24.252C65.9118 21.612 65.1198 20.292 63.5357 20.292ZM103.694 11.184L104.414 18.024L98.6178 16.872L96.9977 33H89.9777L88.3577 16.872L82.5257 18.024L83.2457 11.184H103.694ZM113.608 18.276C114.88 16.38 116.452 15.432 118.324 15.432C119.212 15.432 120.028 15.648 120.772 16.08L119.908 21.984C118.948 21.312 117.868 20.976 116.668 20.976C115.516 20.976 114.736 21.456 114.328 22.416C114.088 23.016 113.932 23.592 113.86 24.144L113.176 33H106.696L105.616 15.936H112.708L113.608 18.276ZM128.122 33.36C126.274 33.36 124.75 32.82 123.55 31.74C122.374 30.66 121.786 29.136 121.786 27.168C121.786 25.176 122.458 23.736 123.802 22.848C125.146 21.936 126.766 21.48 128.662 21.48C130.558 21.48 132.202 21.78 133.594 22.38C133.282 20.388 132.022 19.392 129.814 19.392C128.806 19.392 127.558 19.596 126.07 20.004L125.17 16.764C127.33 15.876 129.526 15.432 131.758 15.432C138.19 15.432 141.406 18.168 141.406 23.64C141.406 25.512 141.19 28.104 140.758 31.416L140.578 33H134.638L134.422 31.02C132.79 32.58 130.69 33.36 128.122 33.36ZM131.362 28.896C132.442 28.896 133.366 28.596 134.134 27.996L133.918 25.62C133.318 25.212 132.646 25.008 131.902 25.008C131.182 25.008 130.582 25.188 130.102 25.548C129.646 25.908 129.418 26.352 129.418 26.88C129.418 27.408 129.598 27.876 129.958 28.284C130.318 28.692 130.786 28.896 131.362 28.896ZM152.228 16.44L152.84 16.224L151.616 33H144.812L143.66 16.224C145.028 16.776 146.48 17.052 148.016 17.052C149.576 17.052 150.98 16.848 152.228 16.44ZM148.232 15.468C147.032 15.468 146.024 15.108 145.208 14.388C144.392 13.668 143.984 12.732 143.984 11.58C143.984 10.404 144.38 9.468 145.172 8.772C145.988 8.052 146.996 7.692 148.196 7.692C149.42 7.692 150.44 8.052 151.256 8.772C152.072 9.492 152.48 10.428 152.48 11.58C152.48 12.732 152.072 13.668 151.256 14.388C150.44 15.108 149.432 15.468 148.232 15.468ZM168.732 15.432C170.412 15.432 171.852 16.14 173.052 17.556C174.276 18.972 174.888 20.82 174.888 23.1C174.888 25.356 174.612 28.656 174.06 33H167.76L167.04 24.936C166.8 22.368 166.104 21.084 164.952 21.084C163.584 21.084 162.852 22.38 162.756 24.972L162.504 33H155.88L155.124 15.936H163.26L163.116 18.996C163.236 18.756 163.512 18.384 163.944 17.88C164.376 17.376 164.796 16.968 165.204 16.656C166.26 15.84 167.436 15.432 168.732 15.432ZM185.737 16.44L186.349 16.224L185.125 33H178.321L177.169 16.224C178.537 16.776 179.989 17.052 181.525 17.052C183.085 17.052 184.489 16.848 185.737 16.44ZM181.741 15.468C180.541 15.468 179.533 15.108 178.717 14.388C177.901 13.668 177.493 12.732 177.493 11.58C177.493 10.404 177.889 9.468 178.681 8.772C179.497 8.052 180.505 7.692 181.705 7.692C182.929 7.692 183.949 8.052 184.765 8.772C185.581 9.492 185.989 10.428 185.989 11.58C185.989 12.732 185.581 13.668 184.765 14.388C183.949 15.108 182.941 15.468 181.741 15.468ZM202.241 15.432C203.921 15.432 205.361 16.14 206.561 17.556C207.785 18.972 208.397 20.82 208.397 23.1C208.397 25.356 208.121 28.656 207.569 33H201.269L200.549 24.936C200.309 22.368 199.613 21.084 198.461 21.084C197.093 21.084 196.361 22.38 196.265 24.972L196.013 33H189.389L188.633 15.936H196.769L196.625 18.996C196.745 18.756 197.021 18.384 197.453 17.88C197.885 17.376 198.305 16.968 198.713 16.656C199.769 15.84 200.945 15.432 202.241 15.432ZM220.974 39.66C219.798 39.66 218.646 39.48 217.518 39.12C216.39 38.784 215.562 38.448 215.034 38.112L214.242 37.572L215.826 34.332C216.858 34.836 217.818 35.088 218.706 35.088C220.338 35.088 221.538 34.572 222.306 33.54C223.074 32.508 223.458 31.32 223.458 29.976C223.458 29.736 223.446 29.496 223.422 29.256C222.294 31.512 220.446 32.64 217.878 32.64C215.622 32.64 213.822 31.956 212.478 30.588C211.158 29.22 210.498 27.048 210.498 24.072C210.498 22.416 210.726 20.988 211.182 19.788C211.662 18.588 212.286 17.688 213.054 17.088C214.47 15.984 216.042 15.432 217.77 15.432C218.97 15.432 219.99 15.72 220.83 16.296C221.526 16.8 222.114 17.352 222.594 17.952L222.378 15.936H230.73L230.118 29.94C229.806 36.42 226.758 39.66 220.974 39.66ZM220.074 20.292C218.658 20.292 217.95 21.612 217.95 24.252C217.95 24.732 217.986 25.2 218.058 25.656C218.154 26.112 218.382 26.568 218.742 27.024C219.126 27.48 219.666 27.708 220.362 27.708C221.058 27.708 221.574 27.372 221.91 26.7C222.27 26.028 222.45 25.212 222.45 24.252C222.45 21.612 221.658 20.292 220.074 20.292Z"/>
</mask>
<path d="M17.26 29.364C18.916 29.364 20.2 28.488 21.112 26.736C22.024 24.984 22.48 23.148 22.48 21.228C22.48 19.284 22.132 17.736 21.436 16.584C20.74 15.432 19.84 14.856 18.736 14.856H18.52L17.044 29.364H17.26ZM17.116 33H10.06L7.9 11.184H18.52C23.872 11.184 27.556 12.648 29.572 15.576C30.628 17.136 31.156 18.984 31.156 21.12C31.156 29.04 26.476 33 17.116 33ZM35.4906 31.236C33.7626 29.796 32.8986 27.516 32.8986 24.396C32.8986 21.276 33.7626 19.008 35.4906 17.592C37.2426 16.152 39.5706 15.432 42.4746 15.432C45.3786 15.432 47.6946 16.152 49.4226 17.592C51.1746 19.008 52.0506 21.276 52.0506 24.396C52.0506 27.516 51.1746 29.796 49.4226 31.236C47.6946 32.652 45.3786 33.36 42.4746 33.36C39.5706 33.36 37.2426 32.652 35.4906 31.236ZM40.9626 20.328C40.6746 21.144 40.5306 22.5 40.5306 24.396C40.5306 26.292 40.6746 27.66 40.9626 28.5C41.2506 29.316 41.7546 29.724 42.4746 29.724C43.1946 29.724 43.6986 29.316 43.9866 28.5C44.2746 27.66 44.4186 26.292 44.4186 24.396C44.4186 22.5 44.2746 21.144 43.9866 20.328C43.6986 19.488 43.1946 19.068 42.4746 19.068C41.7546 19.068 41.2506 19.488 40.9626 20.328ZM64.4358 39.66C63.2598 39.66 62.1078 39.48 60.9798 39.12C59.8517 38.784 59.0237 38.448 58.4957 38.112L57.7037 37.572L59.2877 34.332C60.3197 34.836 61.2797 35.088 62.1678 35.088C63.7998 35.088 64.9998 34.572 65.7678 33.54C66.5358 32.508 66.9198 31.32 66.9198 29.976C66.9198 29.736 66.9078 29.496 66.8837 29.256C65.7557 31.512 63.9077 32.64 61.3397 32.64C59.0837 32.64 57.2837 31.956 55.9397 30.588C54.6197 29.22 53.9597 27.048 53.9597 24.072C53.9597 22.416 54.1877 20.988 54.6437 19.788C55.1237 18.588 55.7477 17.688 56.5157 17.088C57.9317 15.984 59.5037 15.432 61.2318 15.432C62.4317 15.432 63.4517 15.72 64.2917 16.296C64.9878 16.8 65.5758 17.352 66.0558 17.952L65.8398 15.936H74.1918L73.5798 29.94C73.2678 36.42 70.2198 39.66 64.4358 39.66ZM63.5357 20.292C62.1197 20.292 61.4117 21.612 61.4117 24.252C61.4117 24.732 61.4477 25.2 61.5198 25.656C61.6157 26.112 61.8437 26.568 62.2037 27.024C62.5877 27.48 63.1278 27.708 63.8238 27.708C64.5198 27.708 65.0357 27.372 65.3717 26.7C65.7318 26.028 65.9118 25.212 65.9118 24.252C65.9118 21.612 65.1198 20.292 63.5357 20.292ZM103.694 11.184L104.414 18.024L98.6178 16.872L96.9977 33H89.9777L88.3577 16.872L82.5257 18.024L83.2457 11.184H103.694ZM113.608 18.276C114.88 16.38 116.452 15.432 118.324 15.432C119.212 15.432 120.028 15.648 120.772 16.08L119.908 21.984C118.948 21.312 117.868 20.976 116.668 20.976C115.516 20.976 114.736 21.456 114.328 22.416C114.088 23.016 113.932 23.592 113.86 24.144L113.176 33H106.696L105.616 15.936H112.708L113.608 18.276ZM128.122 33.36C126.274 33.36 124.75 32.82 123.55 31.74C122.374 30.66 121.786 29.136 121.786 27.168C121.786 25.176 122.458 23.736 123.802 22.848C125.146 21.936 126.766 21.48 128.662 21.48C130.558 21.48 132.202 21.78 133.594 22.38C133.282 20.388 132.022 19.392 129.814 19.392C128.806 19.392 127.558 19.596 126.07 20.004L125.17 16.764C127.33 15.876 129.526 15.432 131.758 15.432C138.19 15.432 141.406 18.168 141.406 23.64C141.406 25.512 141.19 28.104 140.758 31.416L140.578 33H134.638L134.422 31.02C132.79 32.58 130.69 33.36 128.122 33.36ZM131.362 28.896C132.442 28.896 133.366 28.596 134.134 27.996L133.918 25.62C133.318 25.212 132.646 25.008 131.902 25.008C131.182 25.008 130.582 25.188 130.102 25.548C129.646 25.908 129.418 26.352 129.418 26.88C129.418 27.408 129.598 27.876 129.958 28.284C130.318 28.692 130.786 28.896 131.362 28.896ZM152.228 16.44L152.84 16.224L151.616 33H144.812L143.66 16.224C145.028 16.776 146.48 17.052 148.016 17.052C149.576 17.052 150.98 16.848 152.228 16.44ZM148.232 15.468C147.032 15.468 146.024 15.108 145.208 14.388C144.392 13.668 143.984 12.732 143.984 11.58C143.984 10.404 144.38 9.468 145.172 8.772C145.988 8.052 146.996 7.692 148.196 7.692C149.42 7.692 150.44 8.052 151.256 8.772C152.072 9.492 152.48 10.428 152.48 11.58C152.48 12.732 152.072 13.668 151.256 14.388C150.44 15.108 149.432 15.468 148.232 15.468ZM168.732 15.432C170.412 15.432 171.852 16.14 173.052 17.556C174.276 18.972 174.888 20.82 174.888 23.1C174.888 25.356 174.612 28.656 174.06 33H167.76L167.04 24.936C166.8 22.368 166.104 21.084 164.952 21.084C163.584 21.084 162.852 22.38 162.756 24.972L162.504 33H155.88L155.124 15.936H163.26L163.116 18.996C163.236 18.756 163.512 18.384 163.944 17.88C164.376 17.376 164.796 16.968 165.204 16.656C166.26 15.84 167.436 15.432 168.732 15.432ZM185.737 16.44L186.349 16.224L185.125 33H178.321L177.169 16.224C178.537 16.776 179.989 17.052 181.525 17.052C183.085 17.052 184.489 16.848 185.737 16.44ZM181.741 15.468C180.541 15.468 179.533 15.108 178.717 14.388C177.901 13.668 177.493 12.732 177.493 11.58C177.493 10.404 177.889 9.468 178.681 8.772C179.497 8.052 180.505 7.692 181.705 7.692C182.929 7.692 183.949 8.052 184.765 8.772C185.581 9.492 185.989 10.428 185.989 11.58C185.989 12.732 185.581 13.668 184.765 14.388C183.949 15.108 182.941 15.468 181.741 15.468ZM202.241 15.432C203.921 15.432 205.361 16.14 206.561 17.556C207.785 18.972 208.397 20.82 208.397 23.1C208.397 25.356 208.121 28.656 207.569 33H201.269L200.549 24.936C200.309 22.368 199.613 21.084 198.461 21.084C197.093 21.084 196.361 22.38 196.265 24.972L196.013 33H189.389L188.633 15.936H196.769L196.625 18.996C196.745 18.756 197.021 18.384 197.453 17.88C197.885 17.376 198.305 16.968 198.713 16.656C199.769 15.84 200.945 15.432 202.241 15.432ZM220.974 39.66C219.798 39.66 218.646 39.48 217.518 39.12C216.39 38.784 215.562 38.448 215.034 38.112L214.242 37.572L215.826 34.332C216.858 34.836 217.818 35.088 218.706 35.088C220.338 35.088 221.538 34.572 222.306 33.54C223.074 32.508 223.458 31.32 223.458 29.976C223.458 29.736 223.446 29.496 223.422 29.256C222.294 31.512 220.446 32.64 217.878 32.64C215.622 32.64 213.822 31.956 212.478 30.588C211.158 29.22 210.498 27.048 210.498 24.072C210.498 22.416 210.726 20.988 211.182 19.788C211.662 18.588 212.286 17.688 213.054 17.088C214.47 15.984 216.042 15.432 217.77 15.432C218.97 15.432 219.99 15.72 220.83 16.296C221.526 16.8 222.114 17.352 222.594 17.952L222.378 15.936H230.73L230.118 29.94C229.806 36.42 226.758 39.66 220.974 39.66ZM220.074 20.292C218.658 20.292 217.95 21.612 217.95 24.252C217.95 24.732 217.986 25.2 218.058 25.656C218.154 26.112 218.382 26.568 218.742 27.024C219.126 27.48 219.666 27.708 220.362 27.708C221.058 27.708 221.574 27.372 221.91 26.7C222.27 26.028 222.45 25.212 222.45 24.252C222.45 21.612 221.658 20.292 220.074 20.292Z" fill="white"/>
<path d="M21.112 26.736L22.886 27.6595L22.886 27.6595L21.112 26.736ZM21.436 16.584L23.1478 15.5498L23.1478 15.5498L21.436 16.584ZM18.52 14.856V12.856H16.7132L16.5303 14.6536L18.52 14.856ZM17.044 29.364L15.0543 29.1616L14.8302 31.364H17.044V29.364ZM10.06 33L8.06973 33.1971L8.24824 35H10.06V33ZM7.9 11.184V9.184H5.6922L5.90973 11.3811L7.9 11.184ZM29.572 15.576L31.2282 14.4549L31.2238 14.4483L31.2193 14.4418L29.572 15.576ZM17.26 31.364C19.8206 31.364 21.7097 29.9192 22.886 27.6595L19.338 25.8125C18.6903 27.0568 18.0114 27.364 17.26 27.364V31.364ZM22.886 27.6595C23.9421 25.6308 24.48 23.479 24.48 21.228H20.48C20.48 22.817 20.1059 24.3372 19.338 25.8125L22.886 27.6595ZM24.48 21.228C24.48 19.0722 24.0982 17.1228 23.1478 15.5498L19.7242 17.6182C20.1658 18.3492 20.48 19.4958 20.48 21.228H24.48ZM23.1478 15.5498C22.1821 13.9513 20.7023 12.856 18.736 12.856V16.856C18.9777 16.856 19.2979 16.9127 19.7242 17.6182L23.1478 15.5498ZM18.736 12.856H18.52V16.856H18.736V12.856ZM16.5303 14.6536L15.0543 29.1616L19.0337 29.5664L20.5097 15.0584L16.5303 14.6536ZM17.044 31.364H17.26V27.364H17.044V31.364ZM17.116 31H10.06V35H17.116V31ZM12.0503 32.8029L9.89027 10.9869L5.90973 11.3811L8.06973 33.1971L12.0503 32.8029ZM7.9 13.184H18.52V9.184H7.9V13.184ZM18.52 13.184C23.5635 13.184 26.444 14.5596 27.9247 16.7102L31.2193 14.4418C28.6681 10.7364 24.1805 9.184 18.52 9.184V13.184ZM27.9158 16.6971C28.7186 17.8831 29.156 19.3283 29.156 21.12H33.156C33.156 18.6397 32.5374 16.3889 31.2282 14.4549L27.9158 16.6971ZM29.156 21.12C29.156 24.6761 28.1211 27.0081 26.3541 28.5032C24.5231 30.0525 21.5617 31 17.116 31V35C22.0303 35 26.0889 33.9675 28.9379 31.5568C31.8509 29.0919 33.156 25.4839 33.156 21.12H29.156ZM35.4906 31.236L34.2103 32.7724L34.2218 32.782L34.2335 32.7915L35.4906 31.236ZM35.4906 17.592L36.7583 19.139L36.7606 19.1371L35.4906 17.592ZM49.4226 17.592L48.1423 19.1284L48.1538 19.138L48.1655 19.1475L49.4226 17.592ZM49.4226 31.236L50.6903 32.783L50.6926 32.7811L49.4226 31.236ZM40.9626 20.328L42.8486 20.9936L42.8516 20.9852L42.8545 20.9766L40.9626 20.328ZM40.9626 28.5L39.0707 29.1486L39.0737 29.1572L39.0766 29.1656L40.9626 28.5ZM43.9866 28.5L45.8726 29.1656L45.8756 29.1572L45.8785 29.1486L43.9866 28.5ZM43.9866 20.328L42.0947 20.9766L42.0977 20.9852L42.1006 20.9936L43.9866 20.328ZM36.771 29.6996C35.6564 28.7707 34.8986 27.1635 34.8986 24.396H30.8986C30.8986 27.8685 31.8688 30.8213 34.2103 32.7724L36.771 29.6996ZM34.8986 24.396C34.8986 21.6259 35.6573 20.0411 36.7583 19.139L34.223 16.045C31.8679 17.9749 30.8986 20.9261 30.8986 24.396H34.8986ZM36.7606 19.1371C38.0643 18.0655 39.9015 17.432 42.4746 17.432V13.432C39.2398 13.432 36.421 14.2385 34.2207 16.0469L36.7606 19.1371ZM42.4746 17.432C45.0493 17.432 46.8674 18.0661 48.1423 19.1284L50.703 16.0556C48.5218 14.2379 45.7079 13.432 42.4746 13.432V17.432ZM48.1655 19.1475C49.2852 20.0525 50.0506 21.6346 50.0506 24.396H54.0506C54.0506 20.9174 53.064 17.9635 50.6798 16.0365L48.1655 19.1475ZM50.0506 24.396C50.0506 27.1549 49.2861 28.7594 48.1527 29.6909L50.6926 32.7811C53.0632 30.8326 54.0506 27.8771 54.0506 24.396H50.0506ZM48.155 29.689C46.8798 30.734 45.0568 31.36 42.4746 31.36V35.36C45.7004 35.36 48.5095 34.57 50.6903 32.783L48.155 29.689ZM42.4746 31.36C39.894 31.36 38.052 30.7346 36.7478 29.6805L34.2335 32.7915C36.4333 34.5694 39.2472 35.36 42.4746 35.36V31.36ZM39.0766 19.6624C38.6664 20.8246 38.5306 22.4781 38.5306 24.396H42.5306C42.5306 22.5219 42.6828 21.4634 42.8486 20.9936L39.0766 19.6624ZM38.5306 24.396C38.5306 26.3204 38.6679 27.9737 39.0707 29.1486L42.8545 27.8514C42.6814 27.3463 42.5306 26.2636 42.5306 24.396H38.5306ZM39.0766 29.1656C39.3037 29.8089 39.678 30.4704 40.2982 30.9725C40.9459 31.4968 41.7102 31.724 42.4746 31.724V27.724C42.4849 27.724 42.5345 27.7258 42.6076 27.7501C42.6833 27.7754 42.7556 27.8154 42.815 27.8635C42.9313 27.9576 42.9096 28.0071 42.8486 27.8344L39.0766 29.1656ZM42.4746 31.724C43.239 31.724 44.0033 31.4968 44.651 30.9725C45.2713 30.4704 45.6456 29.8089 45.8726 29.1656L42.1006 27.8344C42.0397 28.0071 42.018 27.9576 42.1342 27.8635C42.1936 27.8154 42.266 27.7754 42.3417 27.7501C42.4148 27.7258 42.4644 27.724 42.4746 27.724V31.724ZM45.8785 29.1486C46.2814 27.9737 46.4186 26.3204 46.4186 24.396H42.4186C42.4186 26.2636 42.2679 27.3463 42.0947 27.8514L45.8785 29.1486ZM46.4186 24.396C46.4186 22.4781 46.2828 20.8246 45.8726 19.6624L42.1006 20.9936C42.2664 21.4634 42.4186 22.5219 42.4186 24.396H46.4186ZM45.8785 19.6794C45.6563 19.0313 45.2889 18.3598 44.673 17.8466C44.0258 17.3072 43.2537 17.068 42.4746 17.068V21.068C42.4585 21.068 42.4031 21.0653 42.325 21.0385C42.2445 21.0108 42.1706 20.9681 42.1123 20.9194C42.0004 20.8262 42.0289 20.7847 42.0947 20.9766L45.8785 19.6794ZM42.4746 17.068C41.6956 17.068 40.9235 17.3072 40.2763 17.8466C39.6604 18.3598 39.2929 19.0313 39.0707 19.6794L42.8545 20.9766C42.9203 20.7847 42.9489 20.8262 42.837 20.9194C42.7786 20.9681 42.7048 21.0108 42.6242 21.0385C42.5462 21.0653 42.4908 21.068 42.4746 21.068V17.068ZM60.9798 39.12L61.5878 37.2147L61.5693 37.2088L61.5507 37.2032L60.9798 39.12ZM58.4957 38.112L57.3691 39.7645L57.3953 39.7823L57.422 39.7993L58.4957 38.112ZM57.7037 37.572L55.907 36.6936L55.1465 38.2491L56.5771 39.2245L57.7037 37.572ZM59.2877 34.332L60.1654 32.5349L58.369 31.6576L57.491 33.4536L59.2877 34.332ZM66.8837 29.256L68.8738 29.057L68.186 22.1793L65.0949 28.3616L66.8837 29.256ZM55.9397 30.588L54.5005 31.9767L54.5068 31.9832L54.5131 31.9896L55.9397 30.588ZM54.6437 19.788L52.7868 19.0452L52.7803 19.0613L52.7742 19.0776L54.6437 19.788ZM56.5157 17.088L55.286 15.5107L55.2845 15.512L56.5157 17.088ZM64.2917 16.296L65.4648 14.6761L65.444 14.6611L65.4228 14.6465L64.2917 16.296ZM66.0558 17.952L64.494 19.2014L68.7743 24.5518L68.0444 17.7389L66.0558 17.952ZM65.8398 15.936V13.936H63.614L63.8511 16.1491L65.8398 15.936ZM74.1918 15.936L76.1898 16.0233L76.2811 13.936H74.1918V15.936ZM73.5798 29.94L75.5775 30.0362L75.5778 30.0273L73.5798 29.94ZM61.5198 25.656L59.5442 25.9679L59.5522 26.0182L59.5627 26.068L61.5198 25.656ZM62.2037 27.024L60.634 28.2633L60.6536 28.2881L60.6739 28.3123L62.2037 27.024ZM65.3717 26.7L63.6088 25.7556L63.5955 25.7804L63.5829 25.8056L65.3717 26.7ZM64.4358 37.66C63.4675 37.66 62.5206 37.5124 61.5878 37.2147L60.3717 41.0253C61.6949 41.4476 63.052 41.66 64.4358 41.66V37.66ZM61.5507 37.2032C60.4734 36.8823 59.8593 36.6091 59.5695 36.4247L57.422 39.7993C58.1882 40.2869 59.2301 40.6857 60.4088 41.0368L61.5507 37.2032ZM59.6224 36.4595L58.8304 35.9195L56.5771 39.2245L57.3691 39.7645L59.6224 36.4595ZM59.5005 38.4504L61.0845 35.2104L57.491 33.4536L55.907 36.6936L59.5005 38.4504ZM58.4101 36.1291C59.6381 36.7289 60.8999 37.088 62.1678 37.088V33.088C61.6596 33.088 61.0014 32.9431 60.1654 32.5349L58.4101 36.1291ZM62.1678 37.088C64.2442 37.088 66.1273 36.4069 67.3722 34.734L64.1633 32.346C63.8722 32.7371 63.3553 33.088 62.1678 33.088V37.088ZM67.3722 34.734C68.4091 33.3407 68.9198 31.7296 68.9198 29.976H64.9198C64.9198 30.9104 64.6624 31.6753 64.1633 32.346L67.3722 34.734ZM68.9198 29.976C68.9198 29.6692 68.9044 29.3628 68.8738 29.057L64.8937 29.455C64.9111 29.6292 64.9198 29.8028 64.9198 29.976H68.9198ZM65.0949 28.3616C64.6705 29.2103 64.1637 29.7488 63.6097 30.0869C63.0537 30.4263 62.3252 30.64 61.3397 30.64V34.64C62.9223 34.64 64.4018 34.2897 65.6938 33.5011C66.9878 32.7112 67.969 31.5577 68.6726 30.1504L65.0949 28.3616ZM61.3397 30.64C59.5181 30.64 58.2683 30.1044 57.3664 29.1864L54.5131 31.9896C56.2992 33.8076 58.6494 34.64 61.3397 34.64V30.64ZM57.379 29.1993C56.5763 28.3674 55.9597 26.8129 55.9597 24.072H51.9597C51.9597 27.2831 52.6632 30.0726 54.5005 31.9767L57.379 29.1993ZM55.9597 24.072C55.9597 22.5918 56.1645 21.4163 56.5133 20.4984L52.7742 19.0776C52.211 20.5597 51.9597 22.2402 51.9597 24.072H55.9597ZM56.5007 20.5308C56.8909 19.5552 57.3341 18.9867 57.747 18.664L55.2845 15.512C54.1614 16.3893 53.3566 17.6208 52.7868 19.0452L56.5007 20.5308ZM57.7455 18.6653C58.8249 17.8237 59.9677 17.432 61.2318 17.432V13.432C59.0398 13.432 57.0386 14.1443 55.286 15.5107L57.7455 18.6653ZM61.2318 17.432C62.1016 17.432 62.7097 17.6362 63.1607 17.9455L65.4228 14.6465C64.1938 13.8038 62.7619 13.432 61.2318 13.432V17.432ZM63.1187 17.9159C63.6861 18.3267 64.1387 18.7573 64.494 19.2014L67.6175 16.7026C67.0128 15.9467 66.2894 15.2733 65.4648 14.6761L63.1187 17.9159ZM68.0444 17.7389L67.8284 15.7229L63.8511 16.1491L64.0671 18.1651L68.0444 17.7389ZM65.8398 17.936H74.1918V13.936H65.8398V17.936ZM72.1937 15.8487L71.5817 29.8527L75.5778 30.0273L76.1898 16.0233L72.1937 15.8487ZM71.5821 29.8438C71.4387 32.8212 70.6796 34.7152 69.603 35.8596C68.5618 36.9664 66.9504 37.66 64.4358 37.66V41.66C67.7051 41.66 70.5097 40.7336 72.5165 38.6004C74.4879 36.5048 75.4088 33.5388 75.5774 30.0362L71.5821 29.8438ZM63.5357 18.292C62.8593 18.292 62.1737 18.4537 61.5508 18.8408C60.9339 19.2242 60.49 19.7592 60.1803 20.3367C59.5928 21.4319 59.4117 22.8186 59.4117 24.252H63.4117C63.4117 23.0454 63.5847 22.4521 63.7052 22.2273C63.7495 22.1448 63.7481 22.1848 63.6622 22.2382C63.5703 22.2953 63.5042 22.292 63.5357 22.292V18.292ZM59.4117 24.252C59.4117 24.8323 59.4553 25.4047 59.5442 25.9679L63.4953 25.3441C63.4402 24.9953 63.4117 24.6317 63.4117 24.252H59.4117ZM59.5627 26.068C59.736 26.8912 60.1289 27.6235 60.634 28.2633L63.7735 25.7847C63.5586 25.5125 63.4955 25.3328 63.4768 25.244L59.5627 26.068ZM60.6739 28.3123C61.5034 29.2972 62.6475 29.708 63.8238 29.708V25.708C63.6938 25.708 63.6569 25.687 63.6747 25.6945C63.683 25.698 63.6964 25.705 63.711 25.7158C63.7177 25.7208 63.7232 25.7255 63.7274 25.7294C63.7294 25.7313 63.731 25.7329 63.732 25.734C63.7331 25.7352 63.7336 25.7358 63.7336 25.7357L60.6739 28.3123ZM63.8238 29.708C64.5072 29.708 65.2003 29.5382 65.8241 29.132C66.4391 28.7315 66.8686 28.1785 67.1606 27.5944L63.5829 25.8056C63.5389 25.8935 63.5424 25.8445 63.6414 25.78C63.6878 25.7498 63.736 25.7293 63.7777 25.7177C63.8176 25.7066 63.8362 25.708 63.8238 25.708V29.708ZM67.1347 27.6444C67.6856 26.6162 67.9118 25.4578 67.9118 24.252H63.9118C63.9118 24.9662 63.7779 25.4398 63.6088 25.7556L67.1347 27.6444ZM67.9118 24.252C67.9118 22.7973 67.7052 21.3738 67.0327 20.253C66.2626 18.9695 65.0053 18.292 63.5357 18.292V22.292C63.6485 22.292 63.6499 22.3134 63.604 22.2878C63.5553 22.2608 63.5609 22.2412 63.6028 22.311C63.7223 22.5102 63.9118 23.0667 63.9118 24.252H67.9118ZM103.694 11.184L105.683 10.9746L105.494 9.184H103.694V11.184ZM104.414 18.024L104.024 19.9856L106.687 20.5149L106.403 17.8146L104.414 18.024ZM98.6178 16.872L99.0076 14.9104L96.8478 14.4811L96.6278 16.6721L98.6178 16.872ZM96.9977 33V35H98.8069L98.9877 33.1999L96.9977 33ZM89.9777 33L87.9878 33.1999L88.1686 35H89.9777V33ZM88.3577 16.872L90.3477 16.6721L90.1279 14.4837L87.9702 14.9099L88.3577 16.872ZM82.5257 18.024L80.5367 17.8146L80.2528 20.5116L82.9133 19.9861L82.5257 18.024ZM83.2457 11.184V9.184H81.4452L81.2567 10.9746L83.2457 11.184ZM101.705 11.3934L102.425 18.2334L106.403 17.8146L105.683 10.9746L101.705 11.3934ZM104.804 16.0624L99.0076 14.9104L98.2279 18.8336L104.024 19.9856L104.804 16.0624ZM96.6278 16.6721L95.0078 32.8001L98.9877 33.1999L100.608 17.0719L96.6278 16.6721ZM96.9977 31H89.9777V35H96.9977V31ZM91.9677 32.8001L90.3477 16.6721L86.3678 17.0719L87.9878 33.1999L91.9677 32.8001ZM87.9702 14.9099L82.1382 16.0619L82.9133 19.9861L88.7453 18.8341L87.9702 14.9099ZM84.5148 18.2334L85.2348 11.3934L81.2567 10.9746L80.5367 17.8146L84.5148 18.2334ZM83.2457 13.184H103.694V9.184H83.2457V13.184ZM113.608 18.276L111.741 18.994L113.124 22.5879L115.269 19.3902L113.608 18.276ZM120.772 16.08L122.751 16.3696L122.947 15.0302L121.776 14.3504L120.772 16.08ZM119.908 21.984L118.761 23.6225L121.418 25.4819L121.887 22.2736L119.908 21.984ZM114.328 22.416L112.487 21.6337L112.479 21.6534L112.471 21.6732L114.328 22.416ZM113.86 24.144L111.877 23.8853L111.87 23.9375L111.866 23.99L113.86 24.144ZM113.176 33V35H115.028L115.17 33.154L113.176 33ZM106.696 33L104.7 33.1263L104.819 35H106.696V33ZM105.616 15.936V13.936H103.486L103.62 16.0623L105.616 15.936ZM112.708 15.936L114.575 15.218L114.082 13.936H112.708V15.936ZM115.269 19.3902C116.263 17.909 117.27 17.432 118.324 17.432V13.432C115.634 13.432 113.498 14.8509 111.947 17.1618L115.269 19.3902ZM118.324 17.432C118.871 17.432 119.339 17.5606 119.768 17.8096L121.776 14.3504C120.717 13.7354 119.553 13.432 118.324 13.432V17.432ZM118.793 15.7904L117.929 21.6944L121.887 22.2736L122.751 16.3696L118.793 15.7904ZM121.055 20.3455C119.75 19.4323 118.268 18.976 116.668 18.976V22.976C117.468 22.976 118.146 23.1917 118.761 23.6225L121.055 20.3455ZM116.668 18.976C115.817 18.976 114.948 19.1545 114.171 19.6327C113.38 20.1195 112.83 20.827 112.487 21.6337L116.169 23.1983C116.204 23.1147 116.234 23.0742 116.247 23.0588C116.258 23.0452 116.263 23.0418 116.267 23.0393C116.27 23.0375 116.368 22.976 116.668 22.976V18.976ZM112.471 21.6732C112.179 22.4044 111.974 23.1432 111.877 23.8853L115.843 24.4027C115.891 24.0408 115.998 23.6276 116.185 23.1588L112.471 21.6732ZM111.866 23.99L111.182 32.846L115.17 33.154L115.854 24.298L111.866 23.99ZM113.176 31H106.696V35H113.176V31ZM108.692 32.8737L107.612 15.8097L103.62 16.0623L104.7 33.1263L108.692 32.8737ZM105.616 17.936H112.708V13.936H105.616V17.936ZM110.841 16.654L111.741 18.994L115.475 17.558L114.575 15.218L110.841 16.654ZM123.55 31.74L122.197 33.2131L122.205 33.2199L122.212 33.2266L123.55 31.74ZM123.802 22.848L124.905 24.5167L124.915 24.5099L124.925 24.503L123.802 22.848ZM133.594 22.38L132.803 24.2166L136.131 25.6513L135.57 22.0705L133.594 22.38ZM126.07 20.004L124.143 20.5393L124.677 22.4599L126.599 21.9328L126.07 20.004ZM125.17 16.764L124.41 14.9142L122.768 15.5891L123.243 17.2993L125.17 16.764ZM140.758 31.416L138.775 31.1573L138.773 31.1737L138.771 31.1902L140.758 31.416ZM140.578 33V35H142.364L142.565 33.2258L140.578 33ZM134.638 33L132.65 33.2169L132.845 35H134.638V33ZM134.422 31.02L136.41 30.8031L135.971 26.773L133.04 29.5743L134.422 31.02ZM134.134 27.996L135.366 29.572L136.225 28.9008L136.126 27.8149L134.134 27.996ZM133.918 25.62L135.91 25.4389L135.824 24.4976L135.043 23.9661L133.918 25.62ZM130.102 25.548L128.902 23.948L128.882 23.9629L128.863 23.9782L130.102 25.548ZM129.958 28.284L128.459 29.6072L128.459 29.6072L129.958 28.284ZM128.122 31.36C126.692 31.36 125.668 30.9551 124.888 30.2534L122.212 33.2266C123.833 34.6849 125.857 35.36 128.122 35.36V31.36ZM124.903 30.2669C124.233 29.6511 123.786 28.7161 123.786 27.168H119.786C119.786 29.5559 120.516 31.6689 122.197 33.2131L124.903 30.2669ZM123.786 27.168C123.786 25.6665 124.257 24.9446 124.905 24.5167L122.7 21.1793C120.659 22.5274 119.786 24.6855 119.786 27.168H123.786ZM124.925 24.503C125.885 23.8515 127.098 23.48 128.662 23.48V19.48C126.435 19.48 124.407 20.0205 122.679 21.193L124.925 24.503ZM128.662 23.48C130.352 23.48 131.715 23.7478 132.803 24.2166L134.386 20.5434C132.69 19.8122 130.764 19.48 128.662 19.48V23.48ZM135.57 22.0705C135.357 20.7095 134.774 19.4545 133.656 18.57C132.561 17.7046 131.202 17.392 129.814 17.392V21.392C130.635 21.392 131.01 21.5774 131.175 21.708C131.316 21.8195 131.52 22.0585 131.618 22.6895L135.57 22.0705ZM129.814 17.392C128.56 17.392 127.121 17.6421 125.541 18.0752L126.599 21.9328C127.996 21.5499 129.053 21.392 129.814 21.392V17.392ZM127.997 19.4687L127.097 16.2287L123.243 17.2993L124.143 20.5393L127.997 19.4687ZM125.931 18.6138C127.861 17.8203 129.799 17.432 131.758 17.432V13.432C129.253 13.432 126.8 13.9317 124.41 14.9142L125.931 18.6138ZM131.758 17.432C134.738 17.432 136.6 18.0726 137.698 19.0073C138.735 19.8894 139.406 21.3045 139.406 23.64H143.406C143.406 20.5035 142.469 17.8146 140.29 15.9607C138.173 14.1594 135.211 13.432 131.758 13.432V17.432ZM139.406 23.64C139.406 25.3835 139.203 27.8758 138.775 31.1573L142.741 31.6747C143.177 28.3322 143.406 25.6405 143.406 23.64H139.406ZM138.771 31.1902L138.591 32.7742L142.565 33.2258L142.745 31.6418L138.771 31.1902ZM140.578 31H134.638V35H140.578V31ZM136.626 32.7831L136.41 30.8031L132.434 31.2369L132.65 33.2169L136.626 32.7831ZM133.04 29.5743C131.832 30.729 130.252 31.36 128.122 31.36V35.36C131.129 35.36 133.748 34.431 135.804 32.4657L133.04 29.5743ZM131.362 30.896C132.837 30.896 134.208 30.4766 135.366 29.572L132.903 26.42C132.525 26.7154 132.047 26.896 131.362 26.896V30.896ZM136.126 27.8149L135.91 25.4389L131.926 25.8011L132.142 28.1771L136.126 27.8149ZM135.043 23.9661C134.102 23.3266 133.037 23.008 131.902 23.008V27.008C132.256 27.008 132.534 27.0974 132.794 27.2739L135.043 23.9661ZM131.902 23.008C130.839 23.008 129.793 23.2796 128.902 23.948L131.302 27.148C131.371 27.0964 131.526 27.008 131.902 27.008V23.008ZM128.863 23.9782C127.982 24.674 127.418 25.673 127.418 26.88H131.418C131.418 26.8929 131.417 26.9199 131.408 26.9565C131.399 26.9935 131.386 27.0307 131.368 27.0646C131.332 27.1359 131.302 27.1491 131.342 27.1178L128.863 23.9782ZM127.418 26.88C127.418 27.9114 127.787 28.8461 128.459 29.6072L131.458 26.9608C131.439 26.9392 131.429 26.9245 131.425 26.9173C131.42 26.9102 131.419 26.9077 131.42 26.909C131.421 26.9104 131.421 26.911 131.42 26.9091C131.42 26.9069 131.418 26.8979 131.418 26.88H127.418ZM128.459 29.6072C129.223 30.4733 130.251 30.896 131.362 30.896V26.896C131.336 26.896 131.328 26.8937 131.334 26.8949C131.34 26.8961 131.357 26.9001 131.378 26.9096C131.401 26.9192 131.421 26.9312 131.437 26.9434C131.453 26.9553 131.46 26.963 131.458 26.9608L128.459 29.6072ZM152.228 16.44L152.85 18.341L152.872 18.3337L152.894 18.326L152.228 16.44ZM152.84 16.224L154.835 16.3695L155.057 13.3206L152.175 14.338L152.84 16.224ZM151.616 33V35H153.476L153.611 33.1455L151.616 33ZM144.812 33L142.817 33.137L142.945 35H144.812V33ZM143.66 16.224L144.409 14.3693L141.446 13.1739L141.665 16.361L143.66 16.224ZM145.208 14.388L143.885 15.8877L143.885 15.8877L145.208 14.388ZM145.172 8.772L146.492 10.2743L146.495 10.2717L145.172 8.772ZM151.256 8.772L152.579 7.27232L152.579 7.27232L151.256 8.772ZM151.256 14.388L152.579 15.8877L152.579 15.8877L151.256 14.388ZM152.894 18.326L153.506 18.11L152.175 14.338L151.563 14.554L152.894 18.326ZM150.846 16.0785L149.622 32.8545L153.611 33.1455L154.835 16.3695L150.846 16.0785ZM151.616 31H144.812V35H151.616V31ZM146.808 32.863L145.656 16.087L141.665 16.361L142.817 33.137L146.808 32.863ZM142.912 18.0787C144.527 18.7306 146.235 19.052 148.016 19.052V15.052C146.726 15.052 145.529 14.8214 144.409 14.3693L142.912 18.0787ZM148.016 19.052C149.749 19.052 151.367 18.8256 152.85 18.341L151.607 14.539C150.593 14.8704 149.404 15.052 148.016 15.052V19.052ZM148.232 13.468C147.466 13.468 146.944 13.2519 146.531 12.8883L143.885 15.8877C145.105 16.9641 146.599 17.468 148.232 17.468V13.468ZM146.531 12.8883C146.174 12.5725 145.984 12.1963 145.984 11.58H141.984C141.984 13.2677 142.611 14.7635 143.885 15.8877L146.531 12.8883ZM145.984 11.58C145.984 10.9051 146.185 10.5442 146.492 10.2743L143.852 7.26967C142.575 8.39175 141.984 9.90294 141.984 11.58H145.984ZM146.495 10.2717C146.908 9.90806 147.43 9.692 148.196 9.692V5.692C146.563 5.692 145.069 6.19593 143.849 7.27232L146.495 10.2717ZM148.196 9.692C148.998 9.692 149.528 9.91472 149.933 10.2717L152.579 7.27232C151.352 6.18928 149.842 5.692 148.196 5.692V9.692ZM149.933 10.2717C150.291 10.5875 150.48 10.9637 150.48 11.58H154.48C154.48 9.89228 153.854 8.39649 152.579 7.27232L149.933 10.2717ZM150.48 11.58C150.48 12.1963 150.291 12.5725 149.933 12.8883L152.579 15.8877C153.854 14.7635 154.48 13.2677 154.48 11.58H150.48ZM149.933 12.8883C149.521 13.2519 148.999 13.468 148.232 13.468V17.468C149.866 17.468 151.36 16.9641 152.579 15.8877L149.933 12.8883ZM173.052 17.556L171.526 18.849L171.532 18.8565L171.539 18.8639L173.052 17.556ZM174.06 33V35H175.822L176.044 33.2521L174.06 33ZM167.76 33L165.768 33.1779L165.93 35H167.76V33ZM167.04 24.936L169.032 24.7581L169.031 24.7499L167.04 24.936ZM162.756 24.972L160.757 24.898L160.757 24.9093L162.756 24.972ZM162.504 33V35H164.442L164.503 33.0627L162.504 33ZM155.88 33L153.882 33.0885L153.966 35H155.88V33ZM155.124 15.936V13.936H153.033L153.126 16.0245L155.124 15.936ZM163.26 15.936L165.257 16.03L165.356 13.936H163.26V15.936ZM163.116 18.996L161.118 18.902L164.905 19.8904L163.116 18.996ZM165.204 16.656L166.419 18.2447L166.427 18.2386L165.204 16.656ZM168.732 17.432C169.758 17.432 170.661 17.8284 171.526 18.849L174.577 16.263C173.042 14.4516 171.066 13.432 168.732 13.432V17.432ZM171.539 18.8639C172.384 19.8417 172.888 21.1911 172.888 23.1H176.888C176.888 20.4489 176.168 18.1023 174.565 16.2481L171.539 18.8639ZM172.888 23.1C172.888 25.2263 172.625 28.4253 172.076 32.7479L176.044 33.2521C176.598 28.8867 176.888 25.4857 176.888 23.1H172.888ZM174.06 31H167.76V35H174.06V31ZM169.752 32.8221L169.032 24.7581L165.048 25.1139L165.768 33.1779L169.752 32.8221ZM169.031 24.7499C168.902 23.3716 168.636 22.0898 168.096 21.0939C167.508 20.0095 166.466 19.084 164.952 19.084V23.084C164.842 23.084 164.701 23.0453 164.589 22.9672C164.498 22.9042 164.512 22.8749 164.579 23.0001C164.736 23.2882 164.937 23.9324 165.048 25.1221L169.031 24.7499ZM164.952 19.084C163.472 19.084 162.318 19.8639 161.635 21.0724C161.035 22.1345 160.809 23.4872 160.757 24.898L164.754 25.046C164.798 23.8648 164.986 23.2735 165.118 23.0396C165.169 22.9492 165.174 22.9805 165.095 23.029C165.008 23.0826 164.939 23.084 164.952 23.084V19.084ZM160.757 24.9093L160.505 32.9373L164.503 33.0627L164.755 25.0347L160.757 24.9093ZM162.504 31H155.88V35H162.504V31ZM157.878 32.9115L157.122 15.8475L153.126 16.0245L153.882 33.0885L157.878 32.9115ZM155.124 17.936H163.26V13.936H155.124V17.936ZM161.262 15.842L161.118 18.902L165.113 19.09L165.257 16.03L161.262 15.842ZM164.905 19.8904C164.888 19.923 164.908 19.8779 165.019 19.7287C165.12 19.5926 165.265 19.4118 165.462 19.1816L162.425 16.5784C161.997 17.0776 161.569 17.6165 161.327 18.1016L164.905 19.8904ZM165.462 19.1816C165.828 18.7546 166.148 18.4514 166.419 18.2447L163.989 15.0673C163.443 15.4846 162.923 15.9974 162.425 16.5784L165.462 19.1816ZM166.427 18.2386C167.144 17.6845 167.892 17.432 168.732 17.432V13.432C166.979 13.432 165.376 13.9955 163.981 15.0734L166.427 18.2386ZM185.737 16.44L186.359 18.341L186.381 18.3337L186.403 18.326L185.737 16.44ZM186.349 16.224L188.344 16.3695L188.566 13.3206L185.684 14.338L186.349 16.224ZM185.125 33V35H186.985L187.12 33.1455L185.125 33ZM178.321 33L176.326 33.137L176.454 35H178.321V33ZM177.169 16.224L177.918 14.3693L174.955 13.1739L175.174 16.361L177.169 16.224ZM178.717 14.388L177.394 15.8877L177.394 15.8877L178.717 14.388ZM178.681 8.772L180.001 10.2743L180.004 10.2717L178.681 8.772ZM184.765 8.772L186.088 7.27232L186.088 7.27232L184.765 8.772ZM184.765 14.388L186.088 15.8877L186.088 15.8877L184.765 14.388ZM186.403 18.326L187.015 18.11L185.684 14.338L185.072 14.554L186.403 18.326ZM184.354 16.0785L183.13 32.8545L187.12 33.1455L188.344 16.3695L184.354 16.0785ZM185.125 31H178.321V35H185.125V31ZM180.316 32.863L179.164 16.087L175.174 16.361L176.326 33.137L180.316 32.863ZM176.421 18.0787C178.036 18.7306 179.743 19.052 181.525 19.052V15.052C180.235 15.052 179.038 14.8214 177.918 14.3693L176.421 18.0787ZM181.525 19.052C183.258 19.052 184.876 18.8256 186.359 18.341L185.116 14.539C184.102 14.8704 182.913 15.052 181.525 15.052V19.052ZM181.741 13.468C180.975 13.468 180.453 13.2519 180.04 12.8883L177.394 15.8877C178.614 16.9641 180.108 17.468 181.741 17.468V13.468ZM180.04 12.8883C179.682 12.5725 179.493 12.1963 179.493 11.58H175.493C175.493 13.2677 176.12 14.7635 177.394 15.8877L180.04 12.8883ZM179.493 11.58C179.493 10.9051 179.694 10.5442 180.001 10.2743L177.361 7.26967C176.084 8.39175 175.493 9.90294 175.493 11.58H179.493ZM180.004 10.2717C180.417 9.90806 180.939 9.692 181.705 9.692V5.692C180.072 5.692 178.578 6.19593 177.358 7.27232L180.004 10.2717ZM181.705 9.692C182.507 9.692 183.037 9.91472 183.442 10.2717L186.088 7.27232C184.861 6.18928 183.351 5.692 181.705 5.692V9.692ZM183.442 10.2717C183.8 10.5875 183.989 10.9637 183.989 11.58H187.989C187.989 9.89228 187.362 8.39649 186.088 7.27232L183.442 10.2717ZM183.989 11.58C183.989 12.1963 183.8 12.5725 183.442 12.8883L186.088 15.8877C187.362 14.7635 187.989 13.2677 187.989 11.58H183.989ZM183.442 12.8883C183.03 13.2519 182.508 13.468 181.741 13.468V17.468C183.375 17.468 184.869 16.9641 186.088 15.8877L183.442 12.8883ZM206.561 17.556L205.035 18.849L205.041 18.8565L205.048 18.8639L206.561 17.556ZM207.569 33V35H209.331L209.553 33.2521L207.569 33ZM201.269 33L199.277 33.1779L199.439 35H201.269V33ZM200.549 24.936L202.541 24.7581L202.54 24.7499L200.549 24.936ZM196.265 24.972L194.266 24.898L194.266 24.9093L196.265 24.972ZM196.013 33V35H197.951L198.012 33.0627L196.013 33ZM189.389 33L187.391 33.0885L187.475 35H189.389V33ZM188.633 15.936V13.936H186.542L186.635 16.0245L188.633 15.936ZM196.769 15.936L198.766 16.03L198.865 13.936H196.769V15.936ZM196.625 18.996L194.627 18.902L198.414 19.8904L196.625 18.996ZM198.713 16.656L199.928 18.2447L199.936 18.2386L198.713 16.656ZM202.241 17.432C203.267 17.432 204.17 17.8284 205.035 18.849L208.086 16.263C206.551 14.4516 204.575 13.432 202.241 13.432V17.432ZM205.048 18.8639C205.893 19.8417 206.397 21.1911 206.397 23.1H210.397C210.397 20.4489 209.677 18.1023 208.074 16.2481L205.048 18.8639ZM206.397 23.1C206.397 25.2263 206.134 28.4253 205.585 32.7479L209.553 33.2521C210.107 28.8867 210.397 25.4857 210.397 23.1H206.397ZM207.569 31H201.269V35H207.569V31ZM203.261 32.8221L202.541 24.7581L198.557 25.1139L199.277 33.1779L203.261 32.8221ZM202.54 24.7499C202.411 23.3716 202.145 22.0898 201.605 21.0939C201.017 20.0095 199.975 19.084 198.461 19.084V23.084C198.351 23.084 198.21 23.0453 198.098 22.9672C198.007 22.9042 198.02 22.8749 198.088 23.0001C198.245 23.2882 198.446 23.9324 198.557 25.1221L202.54 24.7499ZM198.461 19.084C196.981 19.084 195.827 19.8639 195.144 21.0724C194.544 22.1345 194.318 23.4872 194.266 24.898L198.263 25.046C198.307 23.8648 198.495 23.2735 198.627 23.0396C198.678 22.9492 198.683 22.9805 198.604 23.029C198.517 23.0826 198.448 23.084 198.461 23.084V19.084ZM194.266 24.9093L194.014 32.9373L198.012 33.0627L198.264 25.0347L194.266 24.9093ZM196.013 31H189.389V35H196.013V31ZM191.387 32.9115L190.631 15.8475L186.635 16.0245L187.391 33.0885L191.387 32.9115ZM188.633 17.936H196.769V13.936H188.633V17.936ZM194.771 15.842L194.627 18.902L198.622 19.09L198.766 16.03L194.771 15.842ZM198.414 19.8904C198.397 19.923 198.417 19.8779 198.528 19.7287C198.629 19.5926 198.774 19.4118 198.971 19.1816L195.934 16.5784C195.506 17.0776 195.078 17.6165 194.836 18.1016L198.414 19.8904ZM198.971 19.1816C199.337 18.7546 199.657 18.4514 199.928 18.2447L197.498 15.0673C196.952 15.4846 196.432 15.9974 195.934 16.5784L198.971 19.1816ZM199.936 18.2386C200.653 17.6845 201.401 17.432 202.241 17.432V13.432C200.488 13.432 198.885 13.9955 197.49 15.0734L199.936 18.2386ZM217.518 39.12L218.126 37.2147L218.108 37.2088L218.089 37.2032L217.518 39.12ZM215.034 38.112L213.907 39.7645L213.934 39.7823L213.96 39.7993L215.034 38.112ZM214.242 37.572L212.445 36.6936L211.685 38.2491L213.115 39.2245L214.242 37.572ZM215.826 34.332L216.704 32.5349L214.907 31.6576L214.029 33.4536L215.826 34.332ZM223.422 29.256L225.412 29.057L224.724 22.1793L221.633 28.3616L223.422 29.256ZM212.478 30.588L211.039 31.9767L211.045 31.9832L211.051 31.9896L212.478 30.588ZM211.182 19.788L209.325 19.0452L209.319 19.0613L209.313 19.0776L211.182 19.788ZM213.054 17.088L211.824 15.5107L211.823 15.512L213.054 17.088ZM220.83 16.296L222.003 14.6761L221.982 14.6611L221.961 14.6465L220.83 16.296ZM222.594 17.952L221.032 19.2014L225.313 24.5518L224.583 17.7389L222.594 17.952ZM222.378 15.936V13.936H220.152L220.39 16.1491L222.378 15.936ZM230.73 15.936L232.728 16.0233L232.819 13.936H230.73V15.936ZM230.118 29.94L232.116 30.0362L232.116 30.0273L230.118 29.94ZM218.058 25.656L216.083 25.9679L216.091 26.0182L216.101 26.068L218.058 25.656ZM218.742 27.024L217.172 28.2633L217.192 28.2881L217.212 28.3123L218.742 27.024ZM221.91 26.7L220.147 25.7556L220.134 25.7804L220.121 25.8056L221.91 26.7ZM220.974 37.66C220.006 37.66 219.059 37.5124 218.126 37.2147L216.91 41.0253C218.233 41.4476 219.59 41.66 220.974 41.66V37.66ZM218.089 37.2032C217.012 36.8823 216.398 36.6091 216.108 36.4247L213.96 39.7993C214.727 40.2869 215.769 40.6857 216.947 41.0368L218.089 37.2032ZM216.161 36.4595L215.369 35.9195L213.115 39.2245L213.907 39.7645L216.161 36.4595ZM216.039 38.4504L217.623 35.2104L214.029 33.4536L212.445 36.6936L216.039 38.4504ZM214.948 36.1291C216.176 36.7289 217.438 37.088 218.706 37.088V33.088C218.198 33.088 217.54 32.9431 216.704 32.5349L214.948 36.1291ZM218.706 37.088C220.783 37.088 222.666 36.4069 223.911 34.734L220.702 32.346C220.411 32.7371 219.894 33.088 218.706 33.088V37.088ZM223.911 34.734C224.947 33.3407 225.458 31.7296 225.458 29.976H221.458C221.458 30.9104 221.201 31.6753 220.702 32.346L223.911 34.734ZM225.458 29.976C225.458 29.6692 225.443 29.3628 225.412 29.057L221.432 29.455C221.45 29.6292 221.458 29.8028 221.458 29.976H225.458ZM221.633 28.3616C221.209 29.2103 220.702 29.7488 220.148 30.0869C219.592 30.4263 218.864 30.64 217.878 30.64V34.64C219.461 34.64 220.94 34.2897 222.232 33.5011C223.526 32.7112 224.507 31.5577 225.211 30.1504L221.633 28.3616ZM217.878 30.64C216.057 30.64 214.807 30.1044 213.905 29.1864L211.051 31.9896C212.838 33.8076 215.188 34.64 217.878 34.64V30.64ZM213.917 29.1993C213.115 28.3674 212.498 26.8129 212.498 24.072H208.498C208.498 27.2831 209.202 30.0726 211.039 31.9767L213.917 29.1993ZM212.498 24.072C212.498 22.5918 212.703 21.4163 213.052 20.4984L209.313 19.0776C208.749 20.5597 208.498 22.2402 208.498 24.072H212.498ZM213.039 20.5308C213.429 19.5552 213.872 18.9867 214.285 18.664L211.823 15.512C210.7 16.3893 209.895 17.6208 209.325 19.0452L213.039 20.5308ZM214.284 18.6653C215.363 17.8237 216.506 17.432 217.77 17.432V13.432C215.578 13.432 213.577 14.1443 211.824 15.5107L214.284 18.6653ZM217.77 17.432C218.64 17.432 219.248 17.6362 219.699 17.9455L221.961 14.6465C220.732 13.8038 219.3 13.432 217.77 13.432V17.432ZM219.657 17.9159C220.224 18.3267 220.677 18.7573 221.032 19.2014L224.156 16.7026C223.551 15.9467 222.828 15.2733 222.003 14.6761L219.657 17.9159ZM224.583 17.7389L224.367 15.7229L220.39 16.1491L220.606 18.1651L224.583 17.7389ZM222.378 17.936H230.73V13.936H222.378V17.936ZM228.732 15.8487L228.12 29.8527L232.116 30.0273L232.728 16.0233L228.732 15.8487ZM228.12 29.8438C227.977 32.8212 227.218 34.7152 226.141 35.8596C225.1 36.9664 223.489 37.66 220.974 37.66V41.66C224.243 41.66 227.048 40.7336 229.055 38.6004C231.026 36.5048 231.947 33.5388 232.116 30.0362L228.12 29.8438ZM220.074 18.292C219.398 18.292 218.712 18.4537 218.089 18.8408C217.472 19.2242 217.028 19.7592 216.719 20.3367C216.131 21.4319 215.95 22.8186 215.95 24.252H219.95C219.95 23.0454 220.123 22.4521 220.244 22.2273C220.288 22.1448 220.286 22.1848 220.201 22.2382C220.109 22.2953 220.043 22.292 220.074 22.292V18.292ZM215.95 24.252C215.95 24.8323 215.994 25.4047 216.083 25.9679L220.034 25.3441C219.979 24.9953 219.95 24.6317 219.95 24.252H215.95ZM216.101 26.068C216.274 26.8912 216.667 27.6235 217.172 28.2633L220.312 25.7847C220.097 25.5125 220.034 25.3328 220.015 25.244L216.101 26.068ZM217.212 28.3123C218.042 29.2972 219.186 29.708 220.362 29.708V25.708C220.232 25.708 220.195 25.687 220.213 25.6945C220.221 25.698 220.235 25.705 220.249 25.7158C220.256 25.7208 220.262 25.7255 220.266 25.7294C220.268 25.7313 220.269 25.7329 220.27 25.734C220.271 25.7352 220.272 25.7358 220.272 25.7357L217.212 28.3123ZM220.362 29.708C221.046 29.708 221.739 29.5382 222.363 29.132C222.978 28.7315 223.407 28.1785 223.699 27.5944L220.121 25.8056C220.077 25.8935 220.081 25.8445 220.18 25.78C220.226 25.7498 220.274 25.7293 220.316 25.7177C220.356 25.7066 220.375 25.708 220.362 25.708V29.708ZM223.673 27.6444C224.224 26.6162 224.45 25.4578 224.45 24.252H220.45C220.45 24.9662 220.316 25.4398 220.147 25.7556L223.673 27.6444ZM224.45 24.252C224.45 22.7973 224.244 21.3738 223.571 20.253C222.801 18.9695 221.544 18.292 220.074 18.292V22.292C220.187 22.292 220.188 22.3134 220.142 22.2878C220.094 22.2608 220.099 22.2412 220.141 22.311C220.261 22.5102 220.45 23.0667 220.45 24.252H224.45Z" fill="#003357" mask="url(#path-1-outside-1_7605_43882)"/>
</g>
<defs>
<filter id="filter0_d_7605_43882" x="7.90039" y="7.69238" width="222.83" height="32.9678" filterUnits="userSpaceOnUse" color-interpolation-filters="sRGB">
<feFlood flood-opacity="0" result="BackgroundImageFix"/>
<feColorMatrix in="SourceAlpha" type="matrix" values="0 0 0 0 0 0 0 0 0 0 0 0 0 0 0 0 0 0 127 0" result="hardAlpha"/>
<feOffset dy="1"/>
<feComposite in2="hardAlpha" operator="out"/>
<feColorMatrix type="matrix" values="0 0 0 0 0 0 0 0 0 0.2 0 0 0 0 0.341176 0 0 0 1 0"/>
<feBlend mode="normal" in2="BackgroundImageFix" result="effect1_dropShadow_7605_43882"/>
<feBlend mode="normal" in="SourceGraphic" in2="effect1_dropShadow_7605_43882" result="shape"/>
</filter>
</defs>
</svg>
